<?xml version="1.0" encoding="UTF-8"?>
<svg width="280px" height="280px" viewBox="0 0 280 280" version="1.1" xmlns="http://www.w3.org/2000/svg" xmlns:xlink="http://www.w3.org/1999/xlink">
    <!-- Generator: Sketch 56.3 (81716) - https://sketch.com -->
    <title>shadows</title>
    <desc>Created with Sketch.</desc>
    <defs>
        <circle id="path-1" cx="140" cy="140" r="140"></circle>
    </defs>
    <g id="Symbols" stroke="none" stroke-width="1" fill="none" fill-rule="evenodd">
        <g id="💎/Sun">
            <g id="shadows">
                <mask id="mask-2" fill="white">
                    <use xlink:href="#path-1"></use>
                </mask>
                <circle stroke-opacity="0.01" stroke="#E5E5E5" cx="140" cy="140" r="139.5"></circle>
                <g id="Group" mask="url(#mask-2)" fill="#000000" fill-opacity="0.05">
                    <g transform="translate(-415.000000, -490.000000)" id="Combined-Shape">
                        <path d="M762.053222,631.053222 C828.476313,531.147259 700.458573,403.129518 378,247 L382.675559,1086.22522 L1014.33047,1100.47217 C779.722547,887.432166 695.63013,730.959184 762.053222,631.053222 Z" transform="translate(696.165236, 673.736084) scale(-1, -1) rotate(45.000000) translate(-696.165236, -673.736084) "></path>
                        <path d="M721.053222,611.053222 C787.476313,511.147259 659.458573,383.129518 337,227 L341.675559,1066.22522 L973.330473,1080.47217 C738.722547,867.432166 654.63013,710.959184 721.053222,611.053222 Z" transform="translate(655.165236, 653.736084) scale(-1, -1) rotate(45.000000) translate(-655.165236, -653.736084) "></path>
                        <path d="M689.053222,581.053222 C755.476313,481.147259 627.458573,353.129518 305,197 L309.675559,1036.22522 L941.330473,1050.47217 C706.722547,837.432166 622.63013,680.959184 689.053222,581.053222 Z" transform="translate(623.165236, 623.736084) scale(-1, -1) rotate(45.000000) translate(-623.165236, -623.736084) "></path>
                        <path d="M664.053222,554.053222 C730.476313,454.147259 602.458573,326.129518 280,170 L284.675559,1009.22522 L916.330473,1023.47217 C681.722547,810.432166 597.63013,653.959184 664.053222,554.053222 Z" transform="translate(598.165236, 596.736084) scale(-1, -1) rotate(45.000000) translate(-598.165236, -596.736084) "></path>
                        <path d="M633.053222,524.053222 C699.476313,424.147259 571.458573,296.129518 249,140 L253.675559,979.225224 L885.330473,993.472168 C650.722547,780.432166 566.63013,623.959184 633.053222,524.053222 Z" transform="translate(567.165236, 566.736084) scale(-1, -1) rotate(45.000000) translate(-567.165236, -566.736084) "></path>
                        <path d="M593.053222,484.053222 C659.476313,384.147259 531.458573,256.129518 209,100 L213.675559,939.225224 L845.330473,953.472168 C610.722547,740.432166 526.63013,583.959184 593.053222,484.053222 Z" transform="translate(527.165236, 526.736084) scale(-1, -1) rotate(45.000000) translate(-527.165236, -526.736084) "></path>
                        <path d="M794.053222,658.053222 C860.476313,558.147259 732.458573,430.129518 410,274 L414.675559,1113.22522 L1046.33047,1127.47217 C811.722547,914.432166 727.63013,757.959184 794.053222,658.053222 Z" transform="translate(728.165236, 700.736084) scale(-1, -1) rotate(45.000000) translate(-728.165236, -700.736084) "></path>
                    </g>
                </g>
            </g>
        </g>
    </g>
</svg>